HIERARCHY
ROOT reference
{
  OFFSET 0 0 0
  CHANNELS 6 Xposition Yposition Zposition Zrotation Xrotation Yrotation
  JOINT Hips
  {
    OFFSET -7.71716 91.0384 278.379
    CHANNELS 6 Xposition Yposition Zposition Zrotation Xrotation Yrotation
    JOINT Spine
    {
      OFFSET 0 8.12958 0
      CHANNELS 6 Xposition Yposition Zposition Zrotation Xrotation Yrotation
      JOINT Spine1
      {
        OFFSET 0 26.3907 0
        CHANNELS 6 Xposition Yposition Zposition Zrotation Xrotation Yrotation
        JOINT Neck
        {
          OFFSET 0 26.2823 2.3893
          CHANNELS 6 Xposition Yposition Zposition Zrotation Xrotation Yrotation
          JOINT Head
          {
            OFFSET 0 13.8798 -1.98282
            CHANNELS 6 Xposition Yposition Zposition Zrotation Xrotation Yrotation
            End Site
            {
              OFFSET 0 24.7853 0
            }
          }
        }
        JOINT LeftShoulder
        {
          OFFSET 3.97789 23.5745 -0.27352
          CHANNELS 6 Xposition Yposition Zposition Zrotation Xrotation Yrotation
          JOINT LeftArm
          {
            OFFSET 13.7626 0 0
            CHANNELS 6 Xposition Yposition Zposition Zrotation Xrotation Yrotation
            JOINT LeftForeArm
            {
              OFFSET 26.1014 0 0
              CHANNELS 6 Xposition Yposition Zposition Zrotation Xrotation Yrotation
              JOINT LeftHand
              {
                OFFSET 29.9599 0 0
                CHANNELS 6 Xposition Yposition Zposition Zrotation Xrotation Yrotation
                End Site
                {
                  OFFSET 14.8712 0 0
                }
              }
            }
          }
        }
        JOINT RightShoulder
        {
          OFFSET -3.9517 23.5745 -0.27352
          CHANNELS 6 Xposition Yposition Zposition Zrotation Xrotation Yrotation
          JOINT RightArm
          {
            OFFSET -13.7626 0 0
            CHANNELS 6 Xposition Yposition Zposition Zrotation Xrotation Yrotation
            JOINT RightForeArm
            {
              OFFSET -26.1014 0 0
              CHANNELS 6 Xposition Yposition Zposition Zrotation Xrotation Yrotation
              JOINT RightHand
              {
                OFFSET -29.9599 0 0
                CHANNELS 6 Xposition Yposition Zposition Zrotation Xrotation Yrotation
                End Site
                {
                  OFFSET -14.8712 0 0
                }
              }
            }
          }
        }
      }
    }
    JOINT LeftUpLeg
    {
      OFFSET 9.91412 0 0
      CHANNELS 6 Xposition Yposition Zposition Zrotation Xrotation Yrotation
      JOINT LeftLeg
      {
        OFFSET 0 -41.4279 0
        CHANNELS 6 Xposition Yposition Zposition Zrotation Xrotation Yrotation
        JOINT LeftFoot
        {
          OFFSET 0 -41.0254 0
          CHANNELS 6 Xposition Yposition Zposition Zrotation Xrotation Yrotation
          JOINT LeftToeBase
          {
            OFFSET 0 -6.44418 14.8712
            CHANNELS 6 Xposition Yposition Zposition Zrotation Xrotation Yrotation
            End Site
            {
              OFFSET 0 0 3.96565
            }
          }
        }
      }
    }
    JOINT RightUpLeg
    {
      OFFSET -9.91412 0 0
      CHANNELS 6 Xposition Yposition Zposition Zrotation Xrotation Yrotation
      JOINT RightLeg
      {
        OFFSET 0 -41.4279 0
        CHANNELS 6 Xposition Yposition Zposition Zrotation Xrotation Yrotation
        JOINT RightFoot
        {
          OFFSET 0 -41.0254 0
          CHANNELS 6 Xposition Yposition Zposition Zrotation Xrotation Yrotation
          JOINT RightToeBase
          {
            OFFSET 0 -6.44418 14.8712
            CHANNELS 6 Xposition Yposition Zposition Zrotation Xrotation Yrotation
            End Site
            {
              OFFSET 0 0 3.96565
            }
          }
        }
      }
    }
  }
}
MOTION
Frames:	7
Frame Time:	0.004
0 0 0 0 0 -0 -22.097 37.8257 -189.4 -14.8195 0.321957 6.98121 0 8.12958 2.84217e-014 25.0347 61.1391 -15.4708 -3.55271e-015 26.3907 0 -0.059974 14.8013 -0.520619 -3.55271e-015 26.2823 2.3893 -2.5688 5.99191 -3.248 0 13.8798 -1.98282 2.11352 -0.30697 -2.82316 3.97789 23.5745 -0.27352 1.85195 8.1987 -8.35578 13.7626 0 0 -9.45554 12.5917 -53.4295 26.1014 0 0 -0.422981 -8.05048 -14.8975 29.9599 -2.84217e-014 0 54.1484 -9.12959 -2.0265 -3.9517 23.5745 -0.27352 -3.97378 7.85566 20.162 -13.7626 -2.84217e-014 -1.42109e-014 9.0447 7.77941 49.4979 -26.1014 0 0 -2.28347 -1.47456 12.1915 -29.9599 0 -7.10543e-015 -67.0976 -3.74477 3.7932 9.91412 3.55271e-015 0 15.0515 -12.8954 2.79513 0 -41.4279 0 175.921 52.3205 140.933 0 -41.0254 0 27.9585 -26.6025 39.6954 -3.55271e-015 -6.44418 14.8712 1.59028e-015 -1.59028e-015 1.19271e-015 -9.91412 3.55271e-015 2.84217e-014 -7.22752 -74.8571 -17.4335 3.55271e-015 -41.4279 0 167.069 48.2665 -129.105 0 -41.0254 0 -26.7285 -29.8063 -35.6981 0 -6.44418 14.8712 -7.95139e-016 0 1.59028e-015 
0 0 0 0 0 -0 -22.111 37.8607 -189.381 -14.9287 0.061455 6.90408 3.55271e-015 8.12958 0 25.278 61.4779 -15.65 3.55271e-015 26.3907 1.42109e-014 -0.084875 14.7128 -0.447417 3.55271e-015 26.2823 2.3893 -2.55222 6.01472 -3.24752 0 13.8798 -1.98282 2.11981 -0.308483 -2.81905 3.97789 23.5745 -0.27352 1.83565 8.19826 -8.36876 13.7626 0 1.42109e-014 -9.40887 12.5593 -53.4042 26.1014 2.84217e-014 -7.10543e-015 -0.488673 -8.03235 -14.9098 29.9599 0 0 54.1428 -9.1367 -2.05971 -3.9517 23.5745 -0.27352 -3.96226 7.86725 20.1866 -13.7626 0 0 9.05662 7.73451 49.4706 -26.1014 0 0 -2.25629 -1.44774 12.1887 -29.9599 -2.84217e-014 0 -67.109 -3.73247 3.80991 9.91412 -1.06581e-014 2.84217e-014 15.2285 -12.6017 2.86023 -3.55271e-015 -41.4279 2.84217e-014 175.819 52.3796 140.939 -1.42109e-014 -41.0254 0 28.005 -26.5525 39.7602 0 -6.44418 14.8712 -7.95139e-016 1.59028e-015 1.59028e-015 -9.91412 0 0 -6.50471 -74.5375 -16.8398 3.55271e-015 -41.4279 0 167.021 48.3665 -129.05 0 -41.0254 0 -26.7628 -29.8487 -35.7408 3.55271e-015 -6.44418 14.8712 0 3.18055e-015 -0 
0 0 0 0 0 -0 -22.1159 37.8663 -189.38 -14.9404 0.049692 6.89617 0 8.12958 0 25.2442 61.4861 -15.6158 0 26.3907 2.84217e-014 -0.077099 14.7334 -0.432456 0 26.2823 2.3893 -2.5269 6.01858 -3.24716 7.10543e-015 13.8798 -1.98282 2.11743 -0.30475 -2.83106 3.97789 23.5745 -0.27352 1.82849 8.18347 -8.39911 13.7626 0 0 -9.34609 12.5693 -53.3774 26.1014 0 0 -0.529951 -8.06873 -14.9265 29.9599 2.84217e-014 0 54.2071 -9.18112 -2.06228 -3.9517 23.5745 -0.27352 -3.95159 7.86481 20.2015 -13.7626 0 -1.42109e-014 9.06291 7.71066 49.4431 -26.1014 0 0 -2.24545 -1.45187 12.1866 -29.9599 0 0 -67.0885 -3.7619 3.84768 9.91412 7.10543e-015 0 15.2528 -12.593 2.88428 0 -41.4279 -2.84217e-014 175.775 52.3964 140.994 0 -41.0254 -1.42109e-014 27.9551 -26.5556 39.6961 -3.55271e-015 -6.44418 14.8712 -1.59028e-015 0 -2.38542e-015 -9.91412 3.55271e-015 2.84217e-014 -6.41751 -74.5128 -16.7722 7.10543e-015 -41.4279 -3.55271e-015 166.997 48.3922 -129.067 -7.10543e-015 -41.0254 0 -26.7657 -29.8853 -35.7396 0 -6.44418 14.8712 -3.97569e-016 0 -7.95139e-016 
0 0 0 0 0 -0 -22.1224 37.8744 -189.38 -14.9546 0.030145 6.87243 -3.55271e-015 8.12958 -2.84217e-014 25.1894 61.5166 -15.5673 -3.55271e-015 26.3907 0 -0.060606 14.7357 -0.410681 0 26.2823 2.3893 -2.5204 6.05008 -3.24729 3.55271e-015 13.8798 -1.98282 2.1139 -0.311385 -2.83464 3.97789 23.5745 -0.27352 1.80332 8.17814 -8.42867 13.7626 0 0 -9.27886 12.5794 -53.339 26.1014 0 0 -0.558498 -8.07515 -14.9457 29.9599 2.84217e-014 0 54.2211 -9.18688 -2.05294 -3.9517 23.5745 -0.27352 -3.95524 7.89422 20.2434 -13.7626 0 -1.42109e-014 9.07268 7.63872 49.397 -26.1014 0 7.10543e-015 -2.20671 -1.44442 12.187 -29.9599 0 0 -67.136 -3.76757 3.85774 9.91412 0 0 15.2865 -12.5648 2.91834 0 -41.4279 0 175.753 52.4293 140.99 0 -41.0254 0 27.9298 -26.5485 39.7005 0 -6.44418 14.8712 -1.32417e-031 -3.18055e-015 -2.38542e-015 -9.91412 3.55271e-015 0 -6.24866 -74.4773 -16.6251 0 -41.4279 0 166.964 48.4268 -129.012 -7.10543e-015 -41.0254 0 -26.8198 -29.8954 -35.8143 3.55271e-015 -6.44418 14.8712 -1.39149e-015 3.18055e-015 -0 
0 0 0 0 0 -0 -22.1287 37.8847 -189.38 -14.979 0.028434 6.84948 0 8.12958 -2.84217e-014 25.1522 61.5221 -15.5188 3.55271e-015 26.3907 0 -0.06811 14.7509 -0.382317 -3.55271e-015 26.2823 2.3893 -2.49386 6.08294 -3.25277 3.55271e-015 13.8798 -1.98282 2.1146 -0.342505 -2.84291 3.97789 23.5745 -0.27352 1.78932 8.16364 -8.46135 13.7626 0 0 -9.25518 12.5219 -53.2887 26.1014 2.84217e-014 -3.55271e-015 -0.65002 -8.03256 -14.9864 29.9599 0 0 54.2868 -9.1706 -2.07788 -3.9517 23.5745 -0.27352 -3.93267 7.89148 20.2789 -13.7626 -2.84217e-014 0 9.04606 7.63539 49.3409 -26.1014 0 0 -2.18661 -1.46752 12.1851 -29.9599 0 -7.10543e-015 -67.119 -3.81959 3.89942 9.91412 0 0 15.3242 -12.5613 2.96009 0 -41.4279 0 175.711 52.467 140.991 1.42109e-014 -41.0254 7.10543e-015 27.9581 -26.4989 39.704 0 -6.44418 14.8712 -7.95139e-016 3.18055e-015 1.39149e-015 -9.91412 0 -2.84217e-014 -6.09448 -74.4571 -16.5181 3.55271e-015 -41.4279 0 166.957 48.4674 -129.043 7.10543e-015 -41.0254 0 -26.8768 -29.8875 -35.8268 0 -6.44418 14.8712 -1.98785e-016 3.18055e-015 1.59028e-015 
0 0 0 0 0 -0 -22.1339 37.8993 -189.379 -14.9988 0.035131 6.82395 3.55271e-015 8.12958 0 25.0983 61.5284 -15.46 0 26.3907 -1.42109e-014 -0.065565 14.7616 -0.355274 3.55271e-015 26.2823 2.3893 -2.49204 6.11201 -3.25901 7.10543e-015 13.8798 -1.98282 2.14254 -0.362666 -2.8458 3.97789 23.5745 -0.27352 1.75804 8.14473 -8.49868 13.7626 2.84217e-014 0 -9.07055 12.5978 -53.3443 26.1014 0 -3.55271e-015 -0.669605 -8.12271 -14.8669 29.9599 0 0 54.3368 -9.24663 -2.04467 -3.9517 23.5745 -0.27352 -3.94034 7.89136 20.3188 -13.7626 0 1.42109e-014 9.05216 7.62029 49.2944 -26.1014 0 0 -2.17546 -1.48312 12.1829 -29.9599 0 7.10543e-015 -67.1568 -3.83957 3.90123 9.91412 0 -2.84217e-014 15.3592 -12.5665 2.98344 0 -41.4279 2.84217e-014 175.712 52.5178 140.959 0 -41.0254 7.10543e-015 27.9058 -26.4785 39.6988 3.55271e-015 -6.44418 14.8712 2.38542e-015 0 4.17448e-015 -9.91412 7.10543e-015 0 -5.95694 -74.4312 -16.4044 7.10543e-015 -41.4279 0 166.911 48.5129 -128.976 0 -41.0254 1.42109e-014 -26.9543 -29.8999 -35.9214 -3.55271e-015 -6.44418 14.8712 -1.59028e-015 6.36111e-015 -7.95139e-016 
0 0 0 0 0 -0 -22.1429 37.9198 -189.379 -15.0295 0.023778 6.78353 0 8.12958 0 25.0093 61.6321 -15.3588 -3.55271e-015 26.3907 1.42109e-014 -0.01124 14.6705 -0.285018 0 26.2823 2.3893 -2.4779 6.13711 -3.28661 -3.55271e-015 13.8798 -1.98282 2.12617 -0.332934 -2.87933 3.97789 23.5745 -0.27352 1.68295 8.17908 -8.56807 13.7626 -2.84217e-014 -1.42109e-014 -9.00642 12.5412 -53.3008 26.1014 0 -3.55271e-015 -0.739978 -8.08603 -14.8976 29.9599 0 0 54.3679 -9.23392 -2.07212 -3.9517 23.5745 -0.27352 -3.92644 7.94969 20.2953 -13.7626 0 0 9.0235 7.57092 49.2547 -26.1014 -2.84217e-014 0 -2.13087 -1.4755 12.1802 -29.9599 2.84217e-014 -7.10543e-015 -67.1783 -3.85658 3.92955 9.91412 -3.55271e-015 2.84217e-014 15.4183 -12.5382 3.00953 0 -41.4279 2.84217e-014 175.728 52.5993 140.973 0 -41.0254 -7.10543e-015 27.9107 -26.4478 39.643 0 -6.44418 14.8712 1.59028e-015 -1.59028e-015 -2.5842e-015 -9.91412 -3.55271e-015 0 -5.6959 -74.3833 -16.1924 0 -41.4279 0 166.849 48.58 -128.96 0 -41.0254 0 -27.0061 -29.9195 -35.9556 -3.55271e-015 -6.44418 14.8712 5.96354e-016 0 -7.95139e-016 
